<svg width="256" height="256" viewBox="0 0 256 256" fill="none" xmlns="http://www.w3.org/2000/svg">
<path d="M0 128C0 57.3076 57.3076 0 128 0C198.692 0 256 57.3076 256 128C256 198.692 198.692 256 128 256C57.3076 256 0 198.692 0 128Z" fill="#F6E4FF"/>
<path d="M27.2528 154V102.364H44.7003C48.7512 102.364 52.0625 103.095 54.6342 104.557C57.2228 106.003 59.139 107.961 60.3828 110.432C61.6267 112.903 62.2486 115.659 62.2486 118.702C62.2486 121.744 61.6267 124.509 60.3828 126.997C59.1558 129.484 57.2564 131.468 54.6847 132.947C52.1129 134.409 48.8184 135.141 44.8011 135.141H32.2955V129.594H44.5994C47.3729 129.594 49.6 129.115 51.2809 128.157C52.9618 127.199 54.1804 125.904 54.9368 124.274C55.71 122.627 56.0966 120.769 56.0966 118.702C56.0966 116.634 55.71 114.785 54.9368 113.155C54.1804 111.524 52.9534 110.247 51.2557 109.322C49.558 108.381 47.3056 107.911 44.4986 107.911H33.5057V154H27.2528Z" fill="#300446"/>
<path d="M78.574 102.364V154H72.3212V102.364H78.574Z" fill="#300446"/>
<path d="M132.057 102.364V154H126.006L97.8683 113.457H97.3641V154H91.1112V102.364H97.1624L125.401 143.007H125.905V102.364H132.057Z" fill="#300446"/>
<path d="M221.139 102.364H227.392V136.553C227.392 140.082 226.56 143.234 224.896 146.007C223.249 148.764 220.921 150.941 217.912 152.538C214.903 154.118 211.373 154.908 207.322 154.908C203.272 154.908 199.742 154.118 196.733 152.538C193.724 150.941 191.388 148.764 189.724 146.007C188.076 143.234 187.253 140.082 187.253 136.553V102.364H193.506V136.048C193.506 138.57 194.06 140.814 195.17 142.78C196.279 144.73 197.859 146.268 199.91 147.394C201.977 148.504 204.448 149.058 207.322 149.058C210.197 149.058 212.668 148.504 214.735 147.394C216.803 146.268 218.383 144.73 219.475 142.78C220.585 140.814 221.139 138.57 221.139 136.048V102.364Z" fill="#300446"/>
<path fill-rule="evenodd" clip-rule="evenodd" d="M166.175 98.7474C166.641 99.2135 166.641 99.9691 166.175 100.435L138.376 128.235L166.175 156.035C166.641 156.501 166.641 157.256 166.175 157.723C165.709 158.189 164.954 158.189 164.488 157.723L135 128.235L164.488 98.7474C164.954 98.2813 165.709 98.2813 166.175 98.7474Z" fill="#CC68FB"/>
<path fill-rule="evenodd" clip-rule="evenodd" d="M170.949 98.7474C171.415 99.2135 171.415 99.9691 170.949 100.435L143.15 128.235L170.949 156.035C171.415 156.501 171.415 157.256 170.949 157.723C170.483 158.189 169.728 158.189 169.262 157.723L139.774 128.235L169.262 98.7474C169.728 98.2813 170.483 98.2813 170.949 98.7474Z" fill="#120817"/>
<path fill-rule="evenodd" clip-rule="evenodd" d="M175.723 98.7474C176.189 99.2135 176.189 99.9691 175.723 100.435L147.924 128.235L175.723 156.035C176.189 156.501 176.189 157.256 175.723 157.723C175.257 158.189 174.502 158.189 174.035 157.723L144.548 128.235L174.035 98.7474C174.502 98.2813 175.257 98.2813 175.723 98.7474Z" fill="#F6E4FF"/>
<path fill-rule="evenodd" clip-rule="evenodd" d="M173.754 98.4661C174.376 97.8446 175.383 97.8446 176.005 98.4661C176.626 99.0875 176.626 100.095 176.005 100.717L148.486 128.235L176.005 155.753C176.626 156.375 176.626 157.382 176.005 158.004C175.383 158.625 174.376 158.625 173.754 158.004L143.985 128.235L173.754 98.4661ZM175.442 99.0287C175.131 98.718 174.627 98.718 174.317 99.0287L145.11 128.235L174.317 157.441C174.627 157.752 175.131 157.752 175.442 157.441C175.753 157.13 175.753 156.627 175.442 156.316L147.361 128.235L175.442 100.154C175.753 99.8432 175.753 99.3394 175.442 99.0287Z" fill="#CC68FB"/>
<path fill-rule="evenodd" clip-rule="evenodd" d="M180.497 98.7474C180.963 99.2135 180.963 99.9691 180.497 100.435L152.698 128.235L180.497 156.035C180.963 156.501 180.963 157.256 180.497 157.723C180.031 158.189 179.275 158.189 178.809 157.723L149.322 128.235L178.809 98.7474C179.275 98.2813 180.031 98.2813 180.497 98.7474Z" fill="#300446"/>
</svg>
